<svg xmlns="http://www.w3.org/2000/svg" viewBox="0 0 372.9 372.9"><defs><style>.cls-1{fill:#fcec6f;}.cls-2{font-size:18px;fill:#732116;font-family:HelveticaNeue-LightItalic, Helvetica Neue;font-weight:300;font-style:italic;}.cls-3{letter-spacing:0.02em;}.cls-4{letter-spacing:-0.03em;}.cls-5{letter-spacing:0em;}.cls-6{letter-spacing:-0.01em;}.cls-7{letter-spacing:-0.02em;}.cls-8{letter-spacing:-0.01em;}.cls-9{letter-spacing:0em;}.cls-10{letter-spacing:0.03em;}.cls-11{letter-spacing:-0.02em;}.cls-12{letter-spacing:0.01em;}.cls-13{letter-spacing:0em;}.cls-14{letter-spacing:0.01em;}.cls-15{letter-spacing:0em;}.cls-16{letter-spacing:-0.01em;}.cls-17{letter-spacing:-0.02em;}.cls-18{letter-spacing:-0.02em;}.cls-19{letter-spacing:-0.01em;}.cls-20{letter-spacing:0.01em;}.cls-21{letter-spacing:-0.01em;}.cls-22{letter-spacing:-0.07em;}.cls-23{letter-spacing:0em;}.cls-24{letter-spacing:-0.01em;}.cls-25{letter-spacing:0em;}.cls-26{letter-spacing:-0.02em;}.cls-27{letter-spacing:0em;}.cls-28{letter-spacing:0em;}.cls-29{letter-spacing:-0.01em;}.cls-30{letter-spacing:0em;}.cls-31{letter-spacing:0em;}.cls-32{letter-spacing:0em;}.cls-33{letter-spacing:-0.01em;}.cls-34{letter-spacing:0em;}.cls-35{letter-spacing:-0.01em;}.cls-36{letter-spacing:-0.03em;}.cls-37{letter-spacing:-0.05em;}.cls-38{letter-spacing:-0.02em;}.cls-39{letter-spacing:-0.01em;}.cls-40{letter-spacing:0em;}.cls-41{letter-spacing:-0.03em;}.cls-42{letter-spacing:0em;}.cls-43{letter-spacing:-0.02em;}.cls-44{letter-spacing:-0.02em;}.cls-45{letter-spacing:-0.01em;}.cls-46{letter-spacing:0em;}.cls-47{letter-spacing:0em;}.cls-48{letter-spacing:0em;}.cls-49{letter-spacing:-0.01em;}.cls-50{letter-spacing:-0.01em;}.cls-51{letter-spacing:-0.01em;}.cls-52{letter-spacing:-0.01em;}.cls-53{letter-spacing:0em;}.cls-54{letter-spacing:-0.02em;}.cls-55{letter-spacing:0em;}.cls-56{letter-spacing:-0.01em;}.cls-57{letter-spacing:-0.01em;}.cls-58{letter-spacing:-0.01em;}.cls-59{letter-spacing:-0.01em;}.cls-60{letter-spacing:0em;}.cls-61{letter-spacing:-0.02em;}.cls-62{letter-spacing:-0.02em;}.cls-63{letter-spacing:-0.07em;}.cls-64{letter-spacing:-0.01em;}.cls-65{letter-spacing:0em;}.cls-66{letter-spacing:-0.03em;}.cls-67{letter-spacing:-0.01em;}.cls-68{letter-spacing:-0.01em;}.cls-69{letter-spacing:-0.01em;}.cls-70{letter-spacing:-0.02em;}.cls-71{letter-spacing:-0.01em;}.cls-72{letter-spacing:0em;}.cls-73{letter-spacing:0em;}.cls-74{letter-spacing:0.01em;}.cls-75{letter-spacing:-0.02em;}.cls-76{letter-spacing:-0.01em;}.cls-77{letter-spacing:0.01em;}.cls-78{letter-spacing:-0.02em;}.cls-79{letter-spacing:-0.01em;}.cls-80{letter-spacing:0em;}.cls-81{letter-spacing:0em;}.cls-82{letter-spacing:-0.02em;}.cls-83{letter-spacing:-0.08em;}</style></defs><title>Asset 14</title><g id="Layer_2" data-name="Layer 2"><g id="Layer_1-2" data-name="Layer 1"><rect class="cls-1" width="372.9" height="372.9" rx="12"/><text class="cls-2" transform="translate(40.34 96.23)"><tspan class="cls-3">“</tspan><tspan class="cls-4" x="6.97" y="0">W</tspan><tspan x="22.67" y="0">e </tspan><tspan class="cls-5" x="37.02" y="0">j</tspan><tspan class="cls-6" x="40.32" y="0">u</tspan><tspan class="cls-7" x="49.86" y="0">s</tspan><tspan x="58.22" y="0">t </tspan><tspan class="cls-7" x="68.56" y="0">s</tspan><tspan class="cls-8" x="76.92" y="0">t</tspan><tspan class="cls-9" x="82.05" y="0">a</tspan><tspan class="cls-10" x="91.36" y="0">r</tspan><tspan class="cls-11" x="97.59" y="0">t</tspan><tspan class="cls-12" x="102.48" y="0">e</tspan><tspan x="111.93" y="0">d </tspan><tspan class="cls-13" x="127.27" y="0">jo</tspan><tspan class="cls-14" x="140.53" y="0">k</tspan><tspan class="cls-15" x="149.01" y="0">i</tspan><tspan class="cls-16" x="152.32" y="0">n</tspan><tspan class="cls-17" x="161.81" y="0">g</tspan><tspan x="171.46" y="0">, </tspan><tspan class="cls-18" x="181.47" y="0">y</tspan><tspan class="cls-19" x="189.5" y="0">o</tspan><tspan x="199.38" y="0">u </tspan><tspan class="cls-20" x="214.05" y="0">k</tspan><tspan class="cls-21" x="222.53" y="0">n</tspan><tspan class="cls-16" x="232.07" y="0">o</tspan><tspan class="cls-22" x="241.91" y="0">w</tspan><tspan x="254" y="0">, </tspan><tspan class="cls-23" x="0" y="35">s</tspan><tspan class="cls-15" x="8.61" y="35">i</tspan><tspan class="cls-24" x="11.92" y="35">n</tspan><tspan class="cls-25" x="21.41" y="35">g</tspan><tspan class="cls-15" x="31.47" y="35">i</tspan><tspan class="cls-16" x="34.78" y="35">n</tspan><tspan x="44.27" y="35">g </tspan><tspan class="cls-26" x="59.28" y="35">“</tspan><tspan class="cls-27" x="65.67" y="35">q</tspan><tspan class="cls-28" x="75.94" y="35">u</tspan><tspan class="cls-9" x="85.53" y="35">a</tspan><tspan class="cls-29" x="94.84" y="35">n</tspan><tspan class="cls-30" x="104.39" y="35">d</tspan><tspan x="114.64" y="35">o </tspan><tspan class="cls-31" x="129.65" y="35">p</tspan><tspan class="cls-9" x="139.95" y="35">a</tspan><tspan class="cls-32" x="149.27" y="35">r</tspan><tspan x="154.92" y="35">a </tspan><tspan class="cls-24" x="169.26" y="35">m</tspan><tspan class="cls-33" x="184.08" y="35">u</tspan><tspan class="cls-34" x="193.65" y="35">c</tspan><tspan class="cls-35" x="202.94" y="35">h</tspan><tspan class="cls-36" x="212.49" y="35">o</tspan><tspan class="cls-37" x="221.91" y="35">”</tspan><tspan x="227.59" y="35">. </tspan><tspan class="cls-35" x="237.6" y="35">S</tspan><tspan x="248.82" y="35">o </tspan><tspan class="cls-38" x="263.83" y="35">w</tspan><tspan x="276.74" y="35">e </tspan><tspan class="cls-5" x="0" y="70">j</tspan><tspan class="cls-6" x="3.3" y="70">u</tspan><tspan class="cls-7" x="12.84" y="70">s</tspan><tspan x="21.21" y="70">t </tspan><tspan class="cls-39" x="31.54" y="70">m</tspan><tspan class="cls-29" x="46.37" y="70">a</tspan><tspan class="cls-30" x="55.59" y="70">d</tspan><tspan x="65.84" y="70">e </tspan><tspan class="cls-40" x="80.18" y="70">u</tspan><tspan class="cls-41" x="89.79" y="70">p</tspan><tspan x="99.55" y="70">, </tspan><tspan class="cls-42" x="109.56" y="70">a</tspan><tspan class="cls-43" x="118.87" y="70">h</tspan><tspan x="128.14" y="70">, </tspan><tspan class="cls-44" x="138.15" y="70">P</tspan><tspan class="cls-45" x="149.2" y="70">a</tspan><tspan class="cls-46" x="158.41" y="70">u</tspan><tspan x="168.09" y="70">l </tspan><tspan class="cls-14" x="176.42" y="70">k</tspan><tspan class="cls-47" x="184.9" y="70">n</tspan><tspan class="cls-48" x="194.49" y="70">e</tspan><tspan x="203.84" y="70">w a </tspan><tspan class="cls-49" x="236.53" y="70">f</tspan><tspan class="cls-48" x="241.02" y="70">e</tspan><tspan x="250.37" y="70">w </tspan><tspan class="cls-50" x="0" y="105">S</tspan><tspan class="cls-31" x="11.23" y="105">pa</tspan><tspan class="cls-51" x="30.85" y="105">n</tspan><tspan class="cls-52" x="40.43" y="105">i</tspan><tspan class="cls-53" x="43.66" y="105">s</tspan><tspan x="52.26" y="105">h </tspan><tspan class="cls-54" x="66.93" y="105">w</tspan><tspan class="cls-55" x="79.83" y="105">o</tspan><tspan class="cls-56" x="89.8" y="105">r</tspan><tspan class="cls-57" x="95.3" y="105">d</tspan><tspan x="105.49" y="105">s </tspan><tspan class="cls-46" x="119.15" y="105">f</tspan><tspan class="cls-58" x="123.83" y="105">r</tspan><tspan class="cls-55" x="129.39" y="105">o</tspan><tspan x="139.35" y="105">m </tspan><tspan class="cls-59" x="159.35" y="105">s</tspan><tspan class="cls-34" x="167.88" y="105">c</tspan><tspan class="cls-35" x="177.18" y="105">h</tspan><tspan class="cls-60" x="186.72" y="105">o</tspan><tspan class="cls-55" x="196.7" y="105">o</tspan><tspan class="cls-61" x="206.66" y="105">l</tspan><tspan x="209.66" y="105">, </tspan><tspan class="cls-62" x="219.66" y="105">y</tspan><tspan class="cls-19" x="227.69" y="105">o</tspan><tspan x="237.57" y="105">u </tspan><tspan class="cls-20" x="252.24" y="105">k</tspan><tspan class="cls-21" x="260.72" y="105">n</tspan><tspan class="cls-16" x="270.27" y="105">o</tspan><tspan class="cls-63" x="280.1" y="105">w</tspan><tspan x="292.15" y="105">. </tspan><tspan class="cls-29" x="0" y="140">S</tspan><tspan x="11.22" y="140">o </tspan><tspan class="cls-11" x="26.23" y="140">w</tspan><tspan x="39.14" y="140">e </tspan><tspan class="cls-5" x="53.48" y="140">j</tspan><tspan class="cls-6" x="56.79" y="140">u</tspan><tspan class="cls-7" x="66.33" y="140">s</tspan><tspan x="74.69" y="140">t </tspan><tspan class="cls-7" x="85.02" y="140">s</tspan><tspan class="cls-64" x="93.39" y="140">t</tspan><tspan class="cls-65" x="98.56" y="140">r</tspan><tspan class="cls-46" x="104.27" y="140">u</tspan><tspan class="cls-24" x="113.95" y="140">n</tspan><tspan x="123.44" y="140">g </tspan><tspan class="cls-9" x="138.45" y="140">a</tspan><tspan class="cls-66" x="147.76" y="140">n</tspan><tspan x="156.97" y="140">y </tspan><tspan class="cls-50" x="170.31" y="140">S</tspan><tspan class="cls-31" x="181.54" y="140">pa</tspan><tspan class="cls-67" x="201.16" y="140">n</tspan><tspan class="cls-68" x="210.73" y="140">i</tspan><tspan class="cls-53" x="213.96" y="140">s</tspan><tspan x="222.57" y="140">h </tspan><tspan class="cls-54" x="237.24" y="140">w</tspan><tspan class="cls-55" x="250.14" y="140">o</tspan><tspan class="cls-56" x="260.1" y="140">r</tspan><tspan class="cls-57" x="265.61" y="140">d</tspan><tspan x="275.79" y="140">s </tspan><tspan class="cls-64" x="0" y="175">t</tspan><tspan class="cls-69" x="5.18" y="175">h</tspan><tspan class="cls-70" x="14.73" y="175">a</tspan><tspan x="23.75" y="175">t </tspan><tspan class="cls-71" x="34.08" y="175">s</tspan><tspan class="cls-19" x="42.61" y="175">o</tspan><tspan class="cls-72" x="52.49" y="175">u</tspan><tspan class="cls-29" x="62.17" y="175">n</tspan><tspan class="cls-73" x="71.72" y="175">d</tspan><tspan class="cls-74" x="81.97" y="175">e</tspan><tspan x="91.41" y="175">d </tspan><tspan class="cls-75" x="106.75" y="175">v</tspan><tspan class="cls-76" x="114.66" y="175">a</tspan><tspan class="cls-27" x="123.78" y="175">g</tspan><tspan class="cls-55" x="133.72" y="175">u</tspan><tspan class="cls-77" x="143.35" y="175">e</tspan><tspan class="cls-13" x="152.83" y="175">l</tspan><tspan x="156.12" y="175">y </tspan><tspan class="cls-15" x="169.46" y="175">li</tspan><tspan class="cls-78" x="176.08" y="175">k</tspan><tspan x="184.06" y="175">e </tspan><tspan class="cls-71" x="198.41" y="175">s</tspan><tspan class="cls-55" x="206.94" y="175">o</tspan><tspan class="cls-21" x="216.9" y="175">m</tspan><tspan class="cls-79" x="231.78" y="175">e</tspan><tspan class="cls-64" x="240.98" y="175">t</tspan><tspan class="cls-80" x="246.16" y="175">h</tspan><tspan class="cls-81" x="255.73" y="175">i</tspan><tspan class="cls-16" x="259.04" y="175">n</tspan><tspan class="cls-82" x="268.54" y="175">g</tspan><tspan class="cls-83" x="278.19" y="175">.</tspan><tspan x="281.77" y="175">”</tspan></text></g></g></svg>